<mxfile host="app.diagrams.net" modified="2024-02-06T21:31:19.040Z" agent="Mozilla/5.0 (Windows NT 10.0; Win64; x64) AppleWebKit/537.36 (KHTML, like Gecko) Chrome/121.0.0.0 Safari/537.36" etag="AQoEaFT-uomYE_7urmA7" version="23.1.1" type="device">
  <diagram name="Page-1" id="KKfiPZ5kGAvnxo6Ns7e4">
    <mxGraphModel dx="2750" dy="1622" grid="0" gridSize="10" guides="1" tooltips="1" connect="1" arrows="1" fold="1" page="1" pageScale="1" pageWidth="850" pageHeight="1100" background="#ffffff" math="0" shadow="0">
      <root>
        <mxCell id="0" />
        <mxCell id="1" parent="0" />
        <mxCell id="PiowV0zNqFQFkt_69wuM-38" value="" style="rounded=1;whiteSpace=wrap;html=1;arcSize=3;glass=0;shadow=0;labelBackgroundColor=none;" parent="1" vertex="1">
          <mxGeometry x="-1666" y="461" width="782" height="345" as="geometry" />
        </mxCell>
        <mxCell id="9q-0XuEunCmtoD1HVTBH-2" value="" style="rounded=1;whiteSpace=wrap;html=1;arcSize=3;glass=0;shadow=0;labelBackgroundColor=none;" parent="1" vertex="1">
          <mxGeometry x="-1673" y="29" width="782" height="345" as="geometry" />
        </mxCell>
        <mxCell id="_3Ebt7Whs2M9f_JuN1Xv-4" value="" style="ellipse;whiteSpace=wrap;html=1;aspect=fixed;labelBackgroundColor=none;labelBorderColor=none;" parent="1" vertex="1">
          <mxGeometry x="-1687" y="-1033" width="24" height="24" as="geometry" />
        </mxCell>
        <mxCell id="_3Ebt7Whs2M9f_JuN1Xv-5" value="&lt;font style=&quot;font-size: 16px;&quot;&gt;Manage membership&lt;/font&gt;" style="text;html=1;strokeColor=none;fillColor=none;align=center;verticalAlign=middle;whiteSpace=wrap;rounded=0;labelBackgroundColor=none;" parent="1" vertex="1">
          <mxGeometry x="-1665" y="-1091" width="130" height="30" as="geometry" />
        </mxCell>
        <mxCell id="_3Ebt7Whs2M9f_JuN1Xv-9" style="edgeStyle=orthogonalEdgeStyle;rounded=0;orthogonalLoop=1;jettySize=auto;html=1;exitX=1;exitY=0.5;exitDx=0;exitDy=0;entryX=0;entryY=0.5;entryDx=0;entryDy=0;fontColor=default;labelBackgroundColor=none;" parent="1" source="_3Ebt7Whs2M9f_JuN1Xv-6" target="_3Ebt7Whs2M9f_JuN1Xv-8" edge="1">
          <mxGeometry relative="1" as="geometry" />
        </mxCell>
        <mxCell id="_3Ebt7Whs2M9f_JuN1Xv-6" value="Login*" style="rounded=0;whiteSpace=wrap;html=1;labelBackgroundColor=none;" parent="1" vertex="1">
          <mxGeometry x="-1586" y="-1035" width="70" height="28" as="geometry" />
        </mxCell>
        <mxCell id="_3Ebt7Whs2M9f_JuN1Xv-7" value="" style="endArrow=classic;html=1;rounded=0;fontColor=default;exitX=1;exitY=0.5;exitDx=0;exitDy=0;entryX=0;entryY=0.5;entryDx=0;entryDy=0;labelBackgroundColor=none;" parent="1" source="_3Ebt7Whs2M9f_JuN1Xv-4" target="_3Ebt7Whs2M9f_JuN1Xv-6" edge="1">
          <mxGeometry width="50" height="50" relative="1" as="geometry">
            <mxPoint x="-1743" y="-962" as="sourcePoint" />
            <mxPoint x="-1693" y="-1012" as="targetPoint" />
          </mxGeometry>
        </mxCell>
        <mxCell id="_3Ebt7Whs2M9f_JuN1Xv-11" style="edgeStyle=orthogonalEdgeStyle;rounded=0;orthogonalLoop=1;jettySize=auto;html=1;exitX=1;exitY=0.5;exitDx=0;exitDy=0;entryX=0;entryY=0.5;entryDx=0;entryDy=0;fontColor=default;labelBackgroundColor=none;" parent="1" source="_3Ebt7Whs2M9f_JuN1Xv-8" target="_3Ebt7Whs2M9f_JuN1Xv-10" edge="1">
          <mxGeometry relative="1" as="geometry" />
        </mxCell>
        <mxCell id="_3Ebt7Whs2M9f_JuN1Xv-8" value="DIsplay available memberships" style="rounded=0;whiteSpace=wrap;html=1;labelBackgroundColor=none;" parent="1" vertex="1">
          <mxGeometry x="-1439" y="-1051" width="120" height="60" as="geometry" />
        </mxCell>
        <mxCell id="_3Ebt7Whs2M9f_JuN1Xv-14" style="edgeStyle=orthogonalEdgeStyle;rounded=0;orthogonalLoop=1;jettySize=auto;html=1;exitX=0.5;exitY=1;exitDx=0;exitDy=0;entryX=1;entryY=0.5;entryDx=0;entryDy=0;fontColor=default;labelBackgroundColor=none;" parent="1" source="_3Ebt7Whs2M9f_JuN1Xv-10" target="_3Ebt7Whs2M9f_JuN1Xv-13" edge="1">
          <mxGeometry relative="1" as="geometry" />
        </mxCell>
        <mxCell id="_3Ebt7Whs2M9f_JuN1Xv-21" style="edgeStyle=orthogonalEdgeStyle;rounded=0;orthogonalLoop=1;jettySize=auto;html=1;exitX=1;exitY=0.5;exitDx=0;exitDy=0;entryX=0;entryY=0.5;entryDx=0;entryDy=0;fontColor=default;labelBackgroundColor=none;" parent="1" source="_3Ebt7Whs2M9f_JuN1Xv-10" target="_3Ebt7Whs2M9f_JuN1Xv-20" edge="1">
          <mxGeometry relative="1" as="geometry" />
        </mxCell>
        <mxCell id="_3Ebt7Whs2M9f_JuN1Xv-10" value="" style="rhombus;whiteSpace=wrap;html=1;labelBackgroundColor=none;" parent="1" vertex="1">
          <mxGeometry x="-1239" y="-1038" width="34" height="34" as="geometry" />
        </mxCell>
        <mxCell id="_3Ebt7Whs2M9f_JuN1Xv-30" style="edgeStyle=orthogonalEdgeStyle;rounded=0;orthogonalLoop=1;jettySize=auto;html=1;exitX=0.5;exitY=1;exitDx=0;exitDy=0;entryX=0.5;entryY=0;entryDx=0;entryDy=0;fontColor=default;labelBackgroundColor=none;" parent="1" source="_3Ebt7Whs2M9f_JuN1Xv-12" target="_3Ebt7Whs2M9f_JuN1Xv-29" edge="1">
          <mxGeometry relative="1" as="geometry" />
        </mxCell>
        <mxCell id="_3Ebt7Whs2M9f_JuN1Xv-12" value="" style="rhombus;whiteSpace=wrap;html=1;labelBackgroundColor=none;" parent="1" vertex="1">
          <mxGeometry x="-1568" y="-898" width="34" height="34" as="geometry" />
        </mxCell>
        <mxCell id="_3Ebt7Whs2M9f_JuN1Xv-15" style="edgeStyle=orthogonalEdgeStyle;rounded=0;orthogonalLoop=1;jettySize=auto;html=1;exitX=0;exitY=0.5;exitDx=0;exitDy=0;entryX=0.5;entryY=0;entryDx=0;entryDy=0;fontColor=default;labelBackgroundColor=none;" parent="1" source="_3Ebt7Whs2M9f_JuN1Xv-13" target="_3Ebt7Whs2M9f_JuN1Xv-12" edge="1">
          <mxGeometry relative="1" as="geometry" />
        </mxCell>
        <mxCell id="_3Ebt7Whs2M9f_JuN1Xv-13" value="Display error message" style="rounded=0;whiteSpace=wrap;html=1;labelBackgroundColor=none;" parent="1" vertex="1">
          <mxGeometry x="-1437" y="-972" width="116" height="61" as="geometry" />
        </mxCell>
        <mxCell id="_3Ebt7Whs2M9f_JuN1Xv-16" value="else" style="text;html=1;strokeColor=none;fillColor=none;align=center;verticalAlign=middle;whiteSpace=wrap;rounded=0;labelBackgroundColor=none;" parent="1" vertex="1">
          <mxGeometry x="-1267" y="-993" width="60" height="30" as="geometry" />
        </mxCell>
        <mxCell id="_3Ebt7Whs2M9f_JuN1Xv-17" value="Check Coupons*" style="rounded=0;whiteSpace=wrap;html=1;labelBackgroundColor=none;" parent="1" vertex="1">
          <mxGeometry x="-996" y="-804" width="120" height="60" as="geometry" />
        </mxCell>
        <mxCell id="_3Ebt7Whs2M9f_JuN1Xv-22" style="edgeStyle=orthogonalEdgeStyle;rounded=0;orthogonalLoop=1;jettySize=auto;html=1;exitX=1;exitY=0.5;exitDx=0;exitDy=0;entryX=0.5;entryY=0;entryDx=0;entryDy=0;fontColor=default;labelBackgroundColor=none;" parent="1" source="_3Ebt7Whs2M9f_JuN1Xv-20" target="_3Ebt7Whs2M9f_JuN1Xv-17" edge="1">
          <mxGeometry relative="1" as="geometry" />
        </mxCell>
        <mxCell id="_3Ebt7Whs2M9f_JuN1Xv-24" style="edgeStyle=orthogonalEdgeStyle;rounded=0;orthogonalLoop=1;jettySize=auto;html=1;exitX=0.5;exitY=1;exitDx=0;exitDy=0;entryX=1;entryY=0.5;entryDx=0;entryDy=0;fontColor=default;labelBackgroundColor=none;" parent="1" source="_3Ebt7Whs2M9f_JuN1Xv-20" target="_3Ebt7Whs2M9f_JuN1Xv-12" edge="1">
          <mxGeometry relative="1" as="geometry" />
        </mxCell>
        <mxCell id="_3Ebt7Whs2M9f_JuN1Xv-20" value="" style="rhombus;whiteSpace=wrap;html=1;labelBackgroundColor=none;" parent="1" vertex="1">
          <mxGeometry x="-1077" y="-1038" width="34" height="34" as="geometry" />
        </mxCell>
        <mxCell id="_3Ebt7Whs2M9f_JuN1Xv-23" value="[at least one membership loaded]" style="text;html=1;strokeColor=none;fillColor=none;align=center;verticalAlign=middle;whiteSpace=wrap;rounded=0;labelBackgroundColor=none;" parent="1" vertex="1">
          <mxGeometry x="-1239.5" y="-1080" width="129" height="47" as="geometry" />
        </mxCell>
        <mxCell id="_3Ebt7Whs2M9f_JuN1Xv-25" value="else" style="text;html=1;strokeColor=none;fillColor=none;align=center;verticalAlign=middle;whiteSpace=wrap;rounded=0;labelBackgroundColor=none;" parent="1" vertex="1">
          <mxGeometry x="-1118" y="-997" width="60" height="30" as="geometry" />
        </mxCell>
        <mxCell id="_3Ebt7Whs2M9f_JuN1Xv-26" value="[action==SubscribeToMembership]" style="text;html=1;strokeColor=none;fillColor=none;align=center;verticalAlign=middle;whiteSpace=wrap;rounded=0;labelBackgroundColor=none;" parent="1" vertex="1">
          <mxGeometry x="-974" y="-1041" width="60" height="20" as="geometry" />
        </mxCell>
        <mxCell id="_3Ebt7Whs2M9f_JuN1Xv-33" style="edgeStyle=orthogonalEdgeStyle;rounded=0;orthogonalLoop=1;jettySize=auto;html=1;exitX=0.5;exitY=1;exitDx=0;exitDy=0;entryX=0.5;entryY=0;entryDx=0;entryDy=0;fontColor=default;labelBackgroundColor=none;" parent="1" source="_3Ebt7Whs2M9f_JuN1Xv-27" target="_3Ebt7Whs2M9f_JuN1Xv-32" edge="1">
          <mxGeometry relative="1" as="geometry" />
        </mxCell>
        <mxCell id="_3Ebt7Whs2M9f_JuN1Xv-27" value="Make payment*" style="rounded=0;whiteSpace=wrap;html=1;labelBackgroundColor=none;" parent="1" vertex="1">
          <mxGeometry x="-1203" y="-804" width="120" height="60" as="geometry" />
        </mxCell>
        <mxCell id="_3Ebt7Whs2M9f_JuN1Xv-28" style="edgeStyle=orthogonalEdgeStyle;rounded=0;orthogonalLoop=1;jettySize=auto;html=1;exitX=0;exitY=0.5;exitDx=0;exitDy=0;entryX=1.042;entryY=0.502;entryDx=0;entryDy=0;entryPerimeter=0;fontColor=default;labelBackgroundColor=none;" parent="1" source="_3Ebt7Whs2M9f_JuN1Xv-17" target="_3Ebt7Whs2M9f_JuN1Xv-27" edge="1">
          <mxGeometry relative="1" as="geometry" />
        </mxCell>
        <mxCell id="_3Ebt7Whs2M9f_JuN1Xv-48" style="edgeStyle=orthogonalEdgeStyle;rounded=0;orthogonalLoop=1;jettySize=auto;html=1;exitX=1;exitY=0.5;exitDx=0;exitDy=0;fontColor=default;startArrow=classic;startFill=1;endArrow=none;endFill=0;labelBackgroundColor=none;" parent="1" source="_3Ebt7Whs2M9f_JuN1Xv-29" edge="1">
          <mxGeometry relative="1" as="geometry">
            <mxPoint x="-1431.5714285714287" y="-773.8571428571429" as="targetPoint" />
          </mxGeometry>
        </mxCell>
        <mxCell id="_3Ebt7Whs2M9f_JuN1Xv-51" style="edgeStyle=orthogonalEdgeStyle;rounded=0;orthogonalLoop=1;jettySize=auto;html=1;exitX=0;exitY=0.5;exitDx=0;exitDy=0;entryX=1;entryY=0.5;entryDx=0;entryDy=0;fontColor=default;labelBackgroundColor=none;" parent="1" source="_3Ebt7Whs2M9f_JuN1Xv-29" target="_3Ebt7Whs2M9f_JuN1Xv-50" edge="1">
          <mxGeometry relative="1" as="geometry" />
        </mxCell>
        <mxCell id="_3Ebt7Whs2M9f_JuN1Xv-29" value="" style="rhombus;whiteSpace=wrap;html=1;labelBackgroundColor=none;" parent="1" vertex="1">
          <mxGeometry x="-1568" y="-791" width="34" height="34" as="geometry" />
        </mxCell>
        <mxCell id="_3Ebt7Whs2M9f_JuN1Xv-49" style="edgeStyle=orthogonalEdgeStyle;rounded=0;orthogonalLoop=1;jettySize=auto;html=1;exitX=0.5;exitY=1;exitDx=0;exitDy=0;entryX=0.5;entryY=1;entryDx=0;entryDy=0;fontColor=default;labelBackgroundColor=none;" parent="1" source="_3Ebt7Whs2M9f_JuN1Xv-32" target="_3Ebt7Whs2M9f_JuN1Xv-29" edge="1">
          <mxGeometry relative="1" as="geometry" />
        </mxCell>
        <mxCell id="_3Ebt7Whs2M9f_JuN1Xv-32" value="" style="rhombus;whiteSpace=wrap;html=1;labelBackgroundColor=none;" parent="1" vertex="1">
          <mxGeometry x="-1160" y="-669" width="34" height="34" as="geometry" />
        </mxCell>
        <mxCell id="_3Ebt7Whs2M9f_JuN1Xv-34" value="" style="endArrow=none;html=1;rounded=0;fontColor=default;strokeWidth=3;labelBackgroundColor=none;" parent="1" edge="1">
          <mxGeometry width="50" height="50" relative="1" as="geometry">
            <mxPoint x="-1290" y="-827" as="sourcePoint" />
            <mxPoint x="-1290" y="-670" as="targetPoint" />
          </mxGeometry>
        </mxCell>
        <mxCell id="_3Ebt7Whs2M9f_JuN1Xv-42" style="edgeStyle=orthogonalEdgeStyle;rounded=0;orthogonalLoop=1;jettySize=auto;html=1;exitX=0;exitY=0.5;exitDx=0;exitDy=0;fontColor=default;labelBackgroundColor=none;" parent="1" source="_3Ebt7Whs2M9f_JuN1Xv-35" edge="1">
          <mxGeometry relative="1" as="geometry">
            <mxPoint x="-1432.5263157894738" y="-804.9473684210526" as="targetPoint" />
          </mxGeometry>
        </mxCell>
        <mxCell id="_3Ebt7Whs2M9f_JuN1Xv-43" style="edgeStyle=orthogonalEdgeStyle;rounded=0;orthogonalLoop=1;jettySize=auto;html=1;exitX=1;exitY=0.5;exitDx=0;exitDy=0;fontColor=default;startArrow=classic;startFill=1;endArrow=none;endFill=0;labelBackgroundColor=none;" parent="1" source="_3Ebt7Whs2M9f_JuN1Xv-35" edge="1">
          <mxGeometry relative="1" as="geometry">
            <mxPoint x="-1291.4736842105262" y="-804.9473684210526" as="targetPoint" />
          </mxGeometry>
        </mxCell>
        <mxCell id="_3Ebt7Whs2M9f_JuN1Xv-35" value="Save new membership" style="rounded=0;whiteSpace=wrap;html=1;labelBackgroundColor=none;" parent="1" vertex="1">
          <mxGeometry x="-1396" y="-819" width="79" height="28" as="geometry" />
        </mxCell>
        <mxCell id="_3Ebt7Whs2M9f_JuN1Xv-41" style="edgeStyle=orthogonalEdgeStyle;rounded=0;orthogonalLoop=1;jettySize=auto;html=1;exitX=0;exitY=0.5;exitDx=0;exitDy=0;fontColor=default;labelBackgroundColor=none;" parent="1" source="_3Ebt7Whs2M9f_JuN1Xv-36" edge="1">
          <mxGeometry relative="1" as="geometry">
            <mxPoint x="-1432.2631578947367" y="-758.1052631578947" as="targetPoint" />
          </mxGeometry>
        </mxCell>
        <mxCell id="_3Ebt7Whs2M9f_JuN1Xv-44" style="edgeStyle=orthogonalEdgeStyle;rounded=0;orthogonalLoop=1;jettySize=auto;html=1;exitX=1;exitY=0.5;exitDx=0;exitDy=0;fontColor=default;startArrow=classic;startFill=1;endArrow=none;endFill=0;labelBackgroundColor=none;" parent="1" source="_3Ebt7Whs2M9f_JuN1Xv-36" edge="1">
          <mxGeometry relative="1" as="geometry">
            <mxPoint x="-1289.8947368421052" y="-758.1052631578947" as="targetPoint" />
          </mxGeometry>
        </mxCell>
        <mxCell id="_3Ebt7Whs2M9f_JuN1Xv-36" value="Add Trainer" style="rounded=0;whiteSpace=wrap;html=1;labelBackgroundColor=none;" parent="1" vertex="1">
          <mxGeometry x="-1395" y="-772" width="78" height="28" as="geometry" />
        </mxCell>
        <mxCell id="_3Ebt7Whs2M9f_JuN1Xv-40" style="edgeStyle=orthogonalEdgeStyle;rounded=0;orthogonalLoop=1;jettySize=auto;html=1;exitX=0;exitY=0.5;exitDx=0;exitDy=0;fontColor=default;labelBackgroundColor=none;" parent="1" source="_3Ebt7Whs2M9f_JuN1Xv-37" edge="1">
          <mxGeometry relative="1" as="geometry">
            <mxPoint x="-1432" y="-711" as="targetPoint" />
          </mxGeometry>
        </mxCell>
        <mxCell id="_3Ebt7Whs2M9f_JuN1Xv-45" style="edgeStyle=orthogonalEdgeStyle;rounded=0;orthogonalLoop=1;jettySize=auto;html=1;exitX=1;exitY=0.5;exitDx=0;exitDy=0;fontColor=default;startArrow=classic;startFill=1;endArrow=none;endFill=0;labelBackgroundColor=none;" parent="1" source="_3Ebt7Whs2M9f_JuN1Xv-37" edge="1">
          <mxGeometry relative="1" as="geometry">
            <mxPoint x="-1290.6842105263158" y="-711" as="targetPoint" />
          </mxGeometry>
        </mxCell>
        <mxCell id="_3Ebt7Whs2M9f_JuN1Xv-37" value="Modify points number" style="rounded=0;whiteSpace=wrap;html=1;labelBackgroundColor=none;" parent="1" vertex="1">
          <mxGeometry x="-1395" y="-725" width="78" height="28" as="geometry" />
        </mxCell>
        <mxCell id="_3Ebt7Whs2M9f_JuN1Xv-38" value="" style="endArrow=none;html=1;rounded=0;fontColor=default;strokeWidth=3;labelBackgroundColor=none;" parent="1" edge="1">
          <mxGeometry width="50" height="50" relative="1" as="geometry">
            <mxPoint x="-1430" y="-831" as="sourcePoint" />
            <mxPoint x="-1430" y="-674" as="targetPoint" />
          </mxGeometry>
        </mxCell>
        <mxCell id="_3Ebt7Whs2M9f_JuN1Xv-47" value="" style="endArrow=none;startArrow=classic;html=1;rounded=0;fontColor=default;endFill=0;entryX=0;entryY=0.5;entryDx=0;entryDy=0;labelBackgroundColor=none;" parent="1" target="_3Ebt7Whs2M9f_JuN1Xv-32" edge="1">
          <mxGeometry width="50" height="50" relative="1" as="geometry">
            <mxPoint x="-1288" y="-756" as="sourcePoint" />
            <mxPoint x="-1263" y="-724" as="targetPoint" />
            <Array as="points">
              <mxPoint x="-1236" y="-756" />
              <mxPoint x="-1236" y="-652" />
            </Array>
          </mxGeometry>
        </mxCell>
        <mxCell id="_3Ebt7Whs2M9f_JuN1Xv-50" value="" style="ellipse;whiteSpace=wrap;html=1;aspect=fixed;labelBackgroundColor=none;labelBorderColor=none;" parent="1" vertex="1">
          <mxGeometry x="-1689" y="-786" width="24" height="24" as="geometry" />
        </mxCell>
        <mxCell id="_3Ebt7Whs2M9f_JuN1Xv-52" value="&lt;font style=&quot;font-size: 10px;&quot;&gt;[result==Success]&lt;/font&gt;" style="text;html=1;strokeColor=none;fillColor=none;align=center;verticalAlign=middle;whiteSpace=wrap;rounded=0;labelBackgroundColor=none;" parent="1" vertex="1">
          <mxGeometry x="-1209" y="-679" width="34" height="27" as="geometry" />
        </mxCell>
        <mxCell id="_3Ebt7Whs2M9f_JuN1Xv-53" value="&lt;font style=&quot;font-size: 10px;&quot;&gt;[result==Failure]&lt;/font&gt;" style="text;html=1;strokeColor=none;fillColor=none;align=center;verticalAlign=middle;whiteSpace=wrap;rounded=0;labelBackgroundColor=none;" parent="1" vertex="1">
          <mxGeometry x="-1120" y="-641" width="34" height="27" as="geometry" />
        </mxCell>
        <mxCell id="_3Ebt7Whs2M9f_JuN1Xv-54" value="" style="rounded=1;whiteSpace=wrap;html=1;arcSize=3;glass=0;shadow=0;labelBackgroundColor=none;" parent="1" vertex="1">
          <mxGeometry x="-1675" y="-561" width="778" height="506" as="geometry" />
        </mxCell>
        <mxCell id="_3Ebt7Whs2M9f_JuN1Xv-55" value="Check Coupons" style="text;html=1;strokeColor=none;fillColor=none;align=center;verticalAlign=middle;whiteSpace=wrap;rounded=0;fontSize=20;labelBackgroundColor=none;" parent="1" vertex="1">
          <mxGeometry x="-1660" y="-555" width="149" height="49" as="geometry" />
        </mxCell>
        <mxCell id="_3Ebt7Whs2M9f_JuN1Xv-60" style="edgeStyle=orthogonalEdgeStyle;rounded=0;orthogonalLoop=1;jettySize=auto;html=1;exitX=1;exitY=0.5;exitDx=0;exitDy=0;fontColor=default;labelBackgroundColor=none;" parent="1" source="_3Ebt7Whs2M9f_JuN1Xv-56" target="_3Ebt7Whs2M9f_JuN1Xv-57" edge="1">
          <mxGeometry relative="1" as="geometry" />
        </mxCell>
        <mxCell id="_3Ebt7Whs2M9f_JuN1Xv-56" value="" style="ellipse;whiteSpace=wrap;html=1;aspect=fixed;labelBackgroundColor=none;labelBorderColor=none;" parent="1" vertex="1">
          <mxGeometry x="-1633" y="-463" width="24" height="24" as="geometry" />
        </mxCell>
        <mxCell id="_3Ebt7Whs2M9f_JuN1Xv-63" style="edgeStyle=orthogonalEdgeStyle;rounded=0;orthogonalLoop=1;jettySize=auto;html=1;exitX=1;exitY=0.5;exitDx=0;exitDy=0;fontColor=default;labelBackgroundColor=none;" parent="1" source="_3Ebt7Whs2M9f_JuN1Xv-57" edge="1">
          <mxGeometry relative="1" as="geometry">
            <mxPoint x="-1453.1153846153848" y="-450.8461538461538" as="targetPoint" />
          </mxGeometry>
        </mxCell>
        <mxCell id="_3Ebt7Whs2M9f_JuN1Xv-57" value="" style="rhombus;whiteSpace=wrap;html=1;labelBackgroundColor=none;" parent="1" vertex="1">
          <mxGeometry x="-1554.5" y="-468" width="34" height="34" as="geometry" />
        </mxCell>
        <mxCell id="_3Ebt7Whs2M9f_JuN1Xv-61" value="" style="endArrow=none;html=1;rounded=0;fontColor=default;strokeWidth=3;labelBackgroundColor=none;" parent="1" edge="1">
          <mxGeometry width="50" height="50" relative="1" as="geometry">
            <mxPoint x="-1453.5" y="-498" as="sourcePoint" />
            <mxPoint x="-1453.5" y="-376" as="targetPoint" />
          </mxGeometry>
        </mxCell>
        <mxCell id="_3Ebt7Whs2M9f_JuN1Xv-62" value="" style="endArrow=none;html=1;rounded=0;fontColor=default;strokeWidth=3;labelBackgroundColor=none;" parent="1" edge="1">
          <mxGeometry width="50" height="50" relative="1" as="geometry">
            <mxPoint x="-1302.5" y="-498" as="sourcePoint" />
            <mxPoint x="-1302.5" y="-376" as="targetPoint" />
          </mxGeometry>
        </mxCell>
        <mxCell id="_3Ebt7Whs2M9f_JuN1Xv-66" style="edgeStyle=orthogonalEdgeStyle;rounded=0;orthogonalLoop=1;jettySize=auto;html=1;exitX=0;exitY=0.5;exitDx=0;exitDy=0;fontColor=default;startArrow=classic;startFill=1;endArrow=none;endFill=0;labelBackgroundColor=none;" parent="1" source="_3Ebt7Whs2M9f_JuN1Xv-64" edge="1">
          <mxGeometry relative="1" as="geometry">
            <mxPoint x="-1454.810344827586" y="-470.2413793103449" as="targetPoint" />
          </mxGeometry>
        </mxCell>
        <mxCell id="_3Ebt7Whs2M9f_JuN1Xv-68" style="edgeStyle=orthogonalEdgeStyle;rounded=0;orthogonalLoop=1;jettySize=auto;html=1;exitX=1;exitY=0.5;exitDx=0;exitDy=0;fontColor=default;labelBackgroundColor=none;" parent="1" source="_3Ebt7Whs2M9f_JuN1Xv-64" edge="1">
          <mxGeometry relative="1" as="geometry">
            <mxPoint x="-1304.6914893617022" y="-470.02127659574467" as="targetPoint" />
          </mxGeometry>
        </mxCell>
        <mxCell id="_3Ebt7Whs2M9f_JuN1Xv-64" value="Display points" style="rounded=0;whiteSpace=wrap;html=1;labelBackgroundColor=none;" parent="1" vertex="1">
          <mxGeometry x="-1414.5" y="-484" width="78" height="28" as="geometry" />
        </mxCell>
        <mxCell id="_3Ebt7Whs2M9f_JuN1Xv-69" style="edgeStyle=orthogonalEdgeStyle;rounded=0;orthogonalLoop=1;jettySize=auto;html=1;exitX=1;exitY=0.5;exitDx=0;exitDy=0;fontColor=default;labelBackgroundColor=none;" parent="1" source="_3Ebt7Whs2M9f_JuN1Xv-65" edge="1">
          <mxGeometry relative="1" as="geometry">
            <mxPoint x="-1304.0531914893618" y="-420.02127659574467" as="targetPoint" />
          </mxGeometry>
        </mxCell>
        <mxCell id="_3Ebt7Whs2M9f_JuN1Xv-65" value="Display Coupons" style="rounded=0;whiteSpace=wrap;html=1;labelBackgroundColor=none;" parent="1" vertex="1">
          <mxGeometry x="-1414.5" y="-434" width="78" height="28" as="geometry" />
        </mxCell>
        <mxCell id="_3Ebt7Whs2M9f_JuN1Xv-67" style="edgeStyle=orthogonalEdgeStyle;rounded=0;orthogonalLoop=1;jettySize=auto;html=1;exitX=0;exitY=0.5;exitDx=0;exitDy=0;fontColor=default;startArrow=classic;startFill=1;endArrow=none;endFill=0;labelBackgroundColor=none;" parent="1" edge="1">
          <mxGeometry relative="1" as="geometry">
            <mxPoint x="-1454.810344827586" y="-420.3713793103449" as="targetPoint" />
            <mxPoint x="-1414.5" y="-420.13" as="sourcePoint" />
          </mxGeometry>
        </mxCell>
        <mxCell id="_3Ebt7Whs2M9f_JuN1Xv-75" style="edgeStyle=orthogonalEdgeStyle;rounded=0;orthogonalLoop=1;jettySize=auto;html=1;exitX=1;exitY=0.5;exitDx=0;exitDy=0;entryX=0.5;entryY=0;entryDx=0;entryDy=0;fontColor=default;labelBackgroundColor=none;" parent="1" source="_3Ebt7Whs2M9f_JuN1Xv-70" target="_3Ebt7Whs2M9f_JuN1Xv-71" edge="1">
          <mxGeometry relative="1" as="geometry" />
        </mxCell>
        <mxCell id="_3Ebt7Whs2M9f_JuN1Xv-77" style="edgeStyle=orthogonalEdgeStyle;rounded=0;orthogonalLoop=1;jettySize=auto;html=1;exitX=0.5;exitY=1;exitDx=0;exitDy=0;entryX=1;entryY=0.5;entryDx=0;entryDy=0;fontColor=default;labelBackgroundColor=none;" parent="1" source="_3Ebt7Whs2M9f_JuN1Xv-70" target="_3Ebt7Whs2M9f_JuN1Xv-73" edge="1">
          <mxGeometry relative="1" as="geometry" />
        </mxCell>
        <mxCell id="_3Ebt7Whs2M9f_JuN1Xv-81" style="edgeStyle=orthogonalEdgeStyle;rounded=0;orthogonalLoop=1;jettySize=auto;html=1;exitX=0;exitY=0.5;exitDx=0;exitDy=0;fontColor=default;startArrow=classic;startFill=1;endArrow=none;endFill=0;labelBackgroundColor=none;" parent="1" source="_3Ebt7Whs2M9f_JuN1Xv-70" edge="1">
          <mxGeometry relative="1" as="geometry">
            <mxPoint x="-1298.125" y="-450.875" as="targetPoint" />
          </mxGeometry>
        </mxCell>
        <mxCell id="_3Ebt7Whs2M9f_JuN1Xv-70" value="" style="rhombus;whiteSpace=wrap;html=1;labelBackgroundColor=none;" parent="1" vertex="1">
          <mxGeometry x="-1248.5" y="-468" width="34" height="34" as="geometry" />
        </mxCell>
        <mxCell id="_3Ebt7Whs2M9f_JuN1Xv-83" style="edgeStyle=orthogonalEdgeStyle;rounded=0;orthogonalLoop=1;jettySize=auto;html=1;exitX=1;exitY=0.5;exitDx=0;exitDy=0;fontColor=default;labelBackgroundColor=none;" parent="1" source="_3Ebt7Whs2M9f_JuN1Xv-71" target="_3Ebt7Whs2M9f_JuN1Xv-82" edge="1">
          <mxGeometry relative="1" as="geometry" />
        </mxCell>
        <mxCell id="_3Ebt7Whs2M9f_JuN1Xv-71" value="" style="rhombus;whiteSpace=wrap;html=1;labelBackgroundColor=none;" parent="1" vertex="1">
          <mxGeometry x="-1095.5" y="-374" width="34" height="34" as="geometry" />
        </mxCell>
        <mxCell id="_3Ebt7Whs2M9f_JuN1Xv-79" style="edgeStyle=orthogonalEdgeStyle;rounded=0;orthogonalLoop=1;jettySize=auto;html=1;exitX=1;exitY=0.5;exitDx=0;exitDy=0;entryX=0;entryY=0.5;entryDx=0;entryDy=0;fontColor=default;labelBackgroundColor=none;" parent="1" source="_3Ebt7Whs2M9f_JuN1Xv-72" target="_3Ebt7Whs2M9f_JuN1Xv-74" edge="1">
          <mxGeometry relative="1" as="geometry" />
        </mxCell>
        <mxCell id="_3Ebt7Whs2M9f_JuN1Xv-80" style="edgeStyle=orthogonalEdgeStyle;rounded=0;orthogonalLoop=1;jettySize=auto;html=1;exitX=0.5;exitY=0;exitDx=0;exitDy=0;entryX=0.5;entryY=1;entryDx=0;entryDy=0;fontColor=default;labelBackgroundColor=none;" parent="1" source="PiowV0zNqFQFkt_69wuM-2" target="_3Ebt7Whs2M9f_JuN1Xv-57" edge="1">
          <mxGeometry relative="1" as="geometry" />
        </mxCell>
        <mxCell id="_3Ebt7Whs2M9f_JuN1Xv-72" value="" style="rhombus;whiteSpace=wrap;html=1;labelBackgroundColor=none;" parent="1" vertex="1">
          <mxGeometry x="-1403.5" y="-220" width="34" height="34" as="geometry" />
        </mxCell>
        <mxCell id="_3Ebt7Whs2M9f_JuN1Xv-78" style="edgeStyle=orthogonalEdgeStyle;rounded=0;orthogonalLoop=1;jettySize=auto;html=1;exitX=0.5;exitY=1;exitDx=0;exitDy=0;fontColor=default;labelBackgroundColor=none;" parent="1" source="_3Ebt7Whs2M9f_JuN1Xv-73" target="_3Ebt7Whs2M9f_JuN1Xv-72" edge="1">
          <mxGeometry relative="1" as="geometry" />
        </mxCell>
        <mxCell id="_3Ebt7Whs2M9f_JuN1Xv-73" value="Check offer eligidibility" style="rounded=0;whiteSpace=wrap;html=1;labelBackgroundColor=none;" parent="1" vertex="1">
          <mxGeometry x="-1433.5" y="-325" width="94" height="50" as="geometry" />
        </mxCell>
        <mxCell id="_3Ebt7Whs2M9f_JuN1Xv-76" style="edgeStyle=orthogonalEdgeStyle;rounded=0;orthogonalLoop=1;jettySize=auto;html=1;exitX=1;exitY=0.5;exitDx=0;exitDy=0;entryX=0.5;entryY=1;entryDx=0;entryDy=0;fontColor=default;labelBackgroundColor=none;" parent="1" source="_3Ebt7Whs2M9f_JuN1Xv-74" target="_3Ebt7Whs2M9f_JuN1Xv-71" edge="1">
          <mxGeometry relative="1" as="geometry" />
        </mxCell>
        <mxCell id="_3Ebt7Whs2M9f_JuN1Xv-74" value="Apply&amp;nbsp; offer to membership" style="rounded=0;whiteSpace=wrap;html=1;labelBackgroundColor=none;" parent="1" vertex="1">
          <mxGeometry x="-1240.5" y="-228" width="94" height="50" as="geometry" />
        </mxCell>
        <mxCell id="_3Ebt7Whs2M9f_JuN1Xv-82" value="" style="ellipse;whiteSpace=wrap;html=1;aspect=fixed;labelBackgroundColor=none;labelBorderColor=none;" parent="1" vertex="1">
          <mxGeometry x="-955.5" y="-369" width="24" height="24" as="geometry" />
        </mxCell>
        <mxCell id="_3Ebt7Whs2M9f_JuN1Xv-84" value="[Action==useCoupon]" style="text;html=1;strokeColor=none;fillColor=none;align=center;verticalAlign=middle;whiteSpace=wrap;rounded=0;fontSize=10;labelBackgroundColor=none;" parent="1" vertex="1">
          <mxGeometry x="-1200" y="-436" width="46" height="21" as="geometry" />
        </mxCell>
        <mxCell id="_3Ebt7Whs2M9f_JuN1Xv-85" value="[else]" style="text;html=1;strokeColor=none;fillColor=none;align=center;verticalAlign=middle;whiteSpace=wrap;rounded=0;fontSize=10;labelBackgroundColor=none;" parent="1" vertex="1">
          <mxGeometry x="-1220.5" y="-472" width="46" height="21" as="geometry" />
        </mxCell>
        <mxCell id="_3Ebt7Whs2M9f_JuN1Xv-86" value="[Eligidibility==true]" style="text;html=1;strokeColor=none;fillColor=none;align=center;verticalAlign=middle;whiteSpace=wrap;rounded=0;fontSize=10;labelBackgroundColor=none;" parent="1" vertex="1">
          <mxGeometry x="-1347.5" y="-224" width="46" height="21" as="geometry" />
        </mxCell>
        <mxCell id="_3Ebt7Whs2M9f_JuN1Xv-87" value="[Eligidibility==false]" style="text;html=1;strokeColor=none;fillColor=none;align=center;verticalAlign=middle;whiteSpace=wrap;rounded=0;fontSize=10;labelBackgroundColor=none;" parent="1" vertex="1">
          <mxGeometry x="-1467.5" y="-224" width="46" height="21" as="geometry" />
        </mxCell>
        <mxCell id="_3Ebt7Whs2M9f_JuN1Xv-89" value="Make payment" style="text;html=1;strokeColor=none;fillColor=none;align=center;verticalAlign=middle;whiteSpace=wrap;rounded=0;fontSize=20;labelBackgroundColor=none;" parent="1" vertex="1">
          <mxGeometry x="-1673" y="46" width="149" height="49" as="geometry" />
        </mxCell>
        <mxCell id="_3Ebt7Whs2M9f_JuN1Xv-95" style="edgeStyle=orthogonalEdgeStyle;rounded=0;orthogonalLoop=1;jettySize=auto;html=1;exitX=1;exitY=0.5;exitDx=0;exitDy=0;fontColor=default;labelBackgroundColor=none;" parent="1" source="_3Ebt7Whs2M9f_JuN1Xv-90" target="_3Ebt7Whs2M9f_JuN1Xv-91" edge="1">
          <mxGeometry relative="1" as="geometry" />
        </mxCell>
        <mxCell id="_3Ebt7Whs2M9f_JuN1Xv-90" value="" style="ellipse;whiteSpace=wrap;html=1;aspect=fixed;labelBackgroundColor=none;labelBorderColor=none;" parent="1" vertex="1">
          <mxGeometry x="-1642.5" y="128" width="24" height="24" as="geometry" />
        </mxCell>
        <mxCell id="_3Ebt7Whs2M9f_JuN1Xv-96" style="edgeStyle=orthogonalEdgeStyle;rounded=0;orthogonalLoop=1;jettySize=auto;html=1;exitX=1;exitY=0.5;exitDx=0;exitDy=0;entryX=0;entryY=0.5;entryDx=0;entryDy=0;fontColor=default;labelBackgroundColor=none;" parent="1" source="_3Ebt7Whs2M9f_JuN1Xv-91" target="_3Ebt7Whs2M9f_JuN1Xv-92" edge="1">
          <mxGeometry relative="1" as="geometry" />
        </mxCell>
        <mxCell id="_3Ebt7Whs2M9f_JuN1Xv-91" value="Display order details" style="rounded=0;whiteSpace=wrap;html=1;labelBackgroundColor=none;" parent="1" vertex="1">
          <mxGeometry x="-1558" y="115" width="94" height="50" as="geometry" />
        </mxCell>
        <mxCell id="_3Ebt7Whs2M9f_JuN1Xv-97" style="edgeStyle=orthogonalEdgeStyle;rounded=0;orthogonalLoop=1;jettySize=auto;html=1;exitX=1;exitY=0.5;exitDx=0;exitDy=0;entryX=0;entryY=0.5;entryDx=0;entryDy=0;fontColor=default;labelBackgroundColor=none;" parent="1" source="_3Ebt7Whs2M9f_JuN1Xv-92" edge="1">
          <mxGeometry relative="1" as="geometry">
            <mxPoint x="-1268.5" y="140" as="targetPoint" />
          </mxGeometry>
        </mxCell>
        <mxCell id="_3Ebt7Whs2M9f_JuN1Xv-92" value="Display payment methods" style="rounded=0;whiteSpace=wrap;html=1;labelBackgroundColor=none;" parent="1" vertex="1">
          <mxGeometry x="-1422.5" y="115" width="94" height="50" as="geometry" />
        </mxCell>
        <mxCell id="_3Ebt7Whs2M9f_JuN1Xv-94" value="" style="ellipse;whiteSpace=wrap;html=1;aspect=fixed;labelBackgroundColor=none;labelBorderColor=none;" parent="1" vertex="1">
          <mxGeometry x="-965" y="128" width="24" height="24" as="geometry" />
        </mxCell>
        <mxCell id="PiowV0zNqFQFkt_69wuM-3" value="" style="edgeStyle=orthogonalEdgeStyle;rounded=0;orthogonalLoop=1;jettySize=auto;html=1;exitX=0;exitY=0.5;exitDx=0;exitDy=0;entryX=0.5;entryY=1;entryDx=0;entryDy=0;fontColor=default;labelBackgroundColor=none;" parent="1" source="_3Ebt7Whs2M9f_JuN1Xv-72" target="PiowV0zNqFQFkt_69wuM-2" edge="1">
          <mxGeometry relative="1" as="geometry">
            <mxPoint x="-1403.5" y="-203" as="sourcePoint" />
            <mxPoint x="-1537.5" y="-434" as="targetPoint" />
          </mxGeometry>
        </mxCell>
        <mxCell id="PiowV0zNqFQFkt_69wuM-2" value="" style="rhombus;whiteSpace=wrap;html=1;labelBackgroundColor=none;" parent="1" vertex="1">
          <mxGeometry x="-1554.5" y="-351" width="34" height="34" as="geometry" />
        </mxCell>
        <mxCell id="PiowV0zNqFQFkt_69wuM-7" value="" style="edgeStyle=orthogonalEdgeStyle;rounded=0;orthogonalLoop=1;jettySize=auto;html=1;" parent="1" source="PiowV0zNqFQFkt_69wuM-4" target="_3Ebt7Whs2M9f_JuN1Xv-71" edge="1">
          <mxGeometry relative="1" as="geometry" />
        </mxCell>
        <mxCell id="PiowV0zNqFQFkt_69wuM-10" style="edgeStyle=orthogonalEdgeStyle;rounded=0;orthogonalLoop=1;jettySize=auto;html=1;exitX=1;exitY=0.5;exitDx=0;exitDy=0;entryX=0;entryY=0.5;entryDx=0;entryDy=0;" parent="1" source="PiowV0zNqFQFkt_69wuM-4" target="PiowV0zNqFQFkt_69wuM-2" edge="1">
          <mxGeometry relative="1" as="geometry">
            <Array as="points">
              <mxPoint x="-1041.5" y="-272" />
              <mxPoint x="-1041.5" y="-147" />
              <mxPoint x="-1574.5" y="-147" />
              <mxPoint x="-1574.5" y="-334" />
            </Array>
          </mxGeometry>
        </mxCell>
        <mxCell id="PiowV0zNqFQFkt_69wuM-4" value="" style="rhombus;whiteSpace=wrap;html=1;labelBackgroundColor=none;" parent="1" vertex="1">
          <mxGeometry x="-1095.5" y="-289" width="34" height="34" as="geometry" />
        </mxCell>
        <mxCell id="PiowV0zNqFQFkt_69wuM-8" value="[Action==Confirm]" style="text;html=1;strokeColor=none;fillColor=none;align=center;verticalAlign=middle;whiteSpace=wrap;rounded=0;fontSize=10;labelBackgroundColor=none;" parent="1" vertex="1">
          <mxGeometry x="-1146.5" y="-304" width="46" height="21" as="geometry" />
        </mxCell>
        <mxCell id="PiowV0zNqFQFkt_69wuM-11" value="[else]" style="text;html=1;strokeColor=none;fillColor=none;align=center;verticalAlign=middle;whiteSpace=wrap;rounded=0;fontSize=10;labelBackgroundColor=none;" parent="1" vertex="1">
          <mxGeometry x="-1041.5" y="-278" width="46" height="21" as="geometry" />
        </mxCell>
        <mxCell id="PiowV0zNqFQFkt_69wuM-21" style="edgeStyle=orthogonalEdgeStyle;rounded=0;orthogonalLoop=1;jettySize=auto;html=1;exitX=0.5;exitY=1;exitDx=0;exitDy=0;entryX=0.5;entryY=1;entryDx=0;entryDy=0;" parent="1" source="PiowV0zNqFQFkt_69wuM-13" target="PiowV0zNqFQFkt_69wuM-19" edge="1">
          <mxGeometry relative="1" as="geometry" />
        </mxCell>
        <mxCell id="PiowV0zNqFQFkt_69wuM-13" value="Use payment method" style="rounded=0;whiteSpace=wrap;html=1;labelBackgroundColor=none;" parent="1" vertex="1">
          <mxGeometry x="-1297" y="248" width="94" height="50" as="geometry" />
        </mxCell>
        <mxCell id="PiowV0zNqFQFkt_69wuM-15" style="edgeStyle=orthogonalEdgeStyle;rounded=0;orthogonalLoop=1;jettySize=auto;html=1;exitX=0.5;exitY=1;exitDx=0;exitDy=0;entryX=0.5;entryY=0;entryDx=0;entryDy=0;" parent="1" source="PiowV0zNqFQFkt_69wuM-14" target="PiowV0zNqFQFkt_69wuM-13" edge="1">
          <mxGeometry relative="1" as="geometry" />
        </mxCell>
        <mxCell id="PiowV0zNqFQFkt_69wuM-16" style="edgeStyle=orthogonalEdgeStyle;rounded=0;orthogonalLoop=1;jettySize=auto;html=1;exitX=1;exitY=0.5;exitDx=0;exitDy=0;entryX=0;entryY=0.5;entryDx=0;entryDy=0;" parent="1" source="PiowV0zNqFQFkt_69wuM-14" target="_3Ebt7Whs2M9f_JuN1Xv-94" edge="1">
          <mxGeometry relative="1" as="geometry" />
        </mxCell>
        <mxCell id="PiowV0zNqFQFkt_69wuM-14" value="" style="rhombus;whiteSpace=wrap;html=1;labelBackgroundColor=none;" parent="1" vertex="1">
          <mxGeometry x="-1267" y="123" width="34" height="34" as="geometry" />
        </mxCell>
        <mxCell id="PiowV0zNqFQFkt_69wuM-17" value="[Action==Methode selected]" style="text;html=1;strokeColor=none;fillColor=none;align=center;verticalAlign=middle;whiteSpace=wrap;rounded=0;fontSize=10;labelBackgroundColor=none;" parent="1" vertex="1">
          <mxGeometry x="-1385.5" y="183" width="137" height="21" as="geometry" />
        </mxCell>
        <mxCell id="PiowV0zNqFQFkt_69wuM-18" value="[else]" style="text;html=1;strokeColor=none;fillColor=none;align=center;verticalAlign=middle;whiteSpace=wrap;rounded=0;fontSize=10;labelBackgroundColor=none;" parent="1" vertex="1">
          <mxGeometry x="-1239.5" y="118" width="46" height="21" as="geometry" />
        </mxCell>
        <mxCell id="PiowV0zNqFQFkt_69wuM-19" value="" style="rhombus;whiteSpace=wrap;html=1;labelBackgroundColor=none;" parent="1" vertex="1">
          <mxGeometry x="-1080" y="123" width="34" height="34" as="geometry" />
        </mxCell>
        <mxCell id="PiowV0zNqFQFkt_69wuM-22" value="Login" style="text;html=1;strokeColor=none;fillColor=none;align=center;verticalAlign=middle;whiteSpace=wrap;rounded=0;fontSize=20;labelBackgroundColor=none;" parent="1" vertex="1">
          <mxGeometry x="-1641" y="490" width="149" height="49" as="geometry" />
        </mxCell>
        <mxCell id="PiowV0zNqFQFkt_69wuM-23" style="edgeStyle=orthogonalEdgeStyle;rounded=0;orthogonalLoop=1;jettySize=auto;html=1;exitX=1;exitY=0.5;exitDx=0;exitDy=0;fontColor=default;labelBackgroundColor=none;" parent="1" source="PiowV0zNqFQFkt_69wuM-78" edge="1">
          <mxGeometry relative="1" as="geometry">
            <mxPoint x="-1526" y="584" as="targetPoint" />
          </mxGeometry>
        </mxCell>
        <mxCell id="PiowV0zNqFQFkt_69wuM-24" value="" style="ellipse;whiteSpace=wrap;html=1;aspect=fixed;labelBackgroundColor=none;labelBorderColor=none;" parent="1" vertex="1">
          <mxGeometry x="-1660" y="572" width="24" height="24" as="geometry" />
        </mxCell>
        <mxCell id="PiowV0zNqFQFkt_69wuM-27" style="edgeStyle=orthogonalEdgeStyle;rounded=0;orthogonalLoop=1;jettySize=auto;html=1;exitX=1;exitY=0.5;exitDx=0;exitDy=0;entryX=0;entryY=0.5;entryDx=0;entryDy=0;fontColor=default;labelBackgroundColor=none;" parent="1" target="PiowV0zNqFQFkt_69wuM-34" edge="1">
          <mxGeometry relative="1" as="geometry">
            <mxPoint x="-1236.5" y="584" as="targetPoint" />
            <mxPoint x="-1296.5000000000002" y="584" as="sourcePoint" />
          </mxGeometry>
        </mxCell>
        <mxCell id="PiowV0zNqFQFkt_69wuM-29" value="" style="ellipse;whiteSpace=wrap;html=1;aspect=fixed;labelBackgroundColor=none;labelBorderColor=none;" parent="1" vertex="1">
          <mxGeometry x="-933" y="572" width="24" height="24" as="geometry" />
        </mxCell>
        <mxCell id="PiowV0zNqFQFkt_69wuM-30" style="edgeStyle=orthogonalEdgeStyle;rounded=0;orthogonalLoop=1;jettySize=auto;html=1;exitX=0.5;exitY=1;exitDx=0;exitDy=0;entryX=0.5;entryY=1;entryDx=0;entryDy=0;" parent="1" source="PiowV0zNqFQFkt_69wuM-31" target="PiowV0zNqFQFkt_69wuM-78" edge="1">
          <mxGeometry relative="1" as="geometry" />
        </mxCell>
        <mxCell id="PiowV0zNqFQFkt_69wuM-31" value="Display error message" style="rounded=0;whiteSpace=wrap;html=1;labelBackgroundColor=none;" parent="1" vertex="1">
          <mxGeometry x="-1218" y="693" width="94" height="50" as="geometry" />
        </mxCell>
        <mxCell id="PiowV0zNqFQFkt_69wuM-32" style="edgeStyle=orthogonalEdgeStyle;rounded=0;orthogonalLoop=1;jettySize=auto;html=1;exitX=0.5;exitY=1;exitDx=0;exitDy=0;entryX=0.5;entryY=0;entryDx=0;entryDy=0;" parent="1" source="PiowV0zNqFQFkt_69wuM-34" target="PiowV0zNqFQFkt_69wuM-31" edge="1">
          <mxGeometry relative="1" as="geometry" />
        </mxCell>
        <mxCell id="PiowV0zNqFQFkt_69wuM-33" style="edgeStyle=orthogonalEdgeStyle;rounded=0;orthogonalLoop=1;jettySize=auto;html=1;exitX=1;exitY=0.5;exitDx=0;exitDy=0;entryX=0;entryY=0.5;entryDx=0;entryDy=0;" parent="1" source="PiowV0zNqFQFkt_69wuM-34" target="PiowV0zNqFQFkt_69wuM-29" edge="1">
          <mxGeometry relative="1" as="geometry" />
        </mxCell>
        <mxCell id="PiowV0zNqFQFkt_69wuM-34" value="" style="rhombus;whiteSpace=wrap;html=1;labelBackgroundColor=none;" parent="1" vertex="1">
          <mxGeometry x="-1188" y="567" width="34" height="34" as="geometry" />
        </mxCell>
        <mxCell id="PiowV0zNqFQFkt_69wuM-35" value="[CredendialsMatch==false]" style="text;html=1;strokeColor=none;fillColor=none;align=center;verticalAlign=middle;whiteSpace=wrap;rounded=0;fontSize=10;labelBackgroundColor=none;" parent="1" vertex="1">
          <mxGeometry x="-1305.5" y="639" width="137" height="21" as="geometry" />
        </mxCell>
        <mxCell id="PiowV0zNqFQFkt_69wuM-36" value="[CredendialsMatch==true]" style="text;html=1;strokeColor=none;fillColor=none;align=center;verticalAlign=middle;whiteSpace=wrap;rounded=0;fontSize=10;labelBackgroundColor=none;" parent="1" vertex="1">
          <mxGeometry x="-1160" y="543.5" width="46" height="21" as="geometry" />
        </mxCell>
        <mxCell id="PiowV0zNqFQFkt_69wuM-62" value="" style="endArrow=none;html=1;rounded=0;fontColor=default;strokeWidth=3;labelBackgroundColor=none;" parent="1" edge="1">
          <mxGeometry width="50" height="50" relative="1" as="geometry">
            <mxPoint x="-1522.69" y="526" as="sourcePoint" />
            <mxPoint x="-1522.69" y="648" as="targetPoint" />
          </mxGeometry>
        </mxCell>
        <mxCell id="PiowV0zNqFQFkt_69wuM-63" value="" style="endArrow=none;html=1;rounded=0;fontColor=default;strokeWidth=3;labelBackgroundColor=none;" parent="1" edge="1">
          <mxGeometry width="50" height="50" relative="1" as="geometry">
            <mxPoint x="-1371.69" y="526" as="sourcePoint" />
            <mxPoint x="-1371.69" y="648" as="targetPoint" />
            <Array as="points">
              <mxPoint x="-1372" y="585" />
            </Array>
          </mxGeometry>
        </mxCell>
        <mxCell id="PiowV0zNqFQFkt_69wuM-64" style="edgeStyle=orthogonalEdgeStyle;rounded=0;orthogonalLoop=1;jettySize=auto;html=1;exitX=0;exitY=0.5;exitDx=0;exitDy=0;fontColor=default;startArrow=classic;startFill=1;endArrow=none;endFill=0;labelBackgroundColor=none;" parent="1" source="PiowV0zNqFQFkt_69wuM-66" edge="1">
          <mxGeometry relative="1" as="geometry">
            <mxPoint x="-1524.000344827586" y="553.7586206896551" as="targetPoint" />
          </mxGeometry>
        </mxCell>
        <mxCell id="PiowV0zNqFQFkt_69wuM-65" style="edgeStyle=orthogonalEdgeStyle;rounded=0;orthogonalLoop=1;jettySize=auto;html=1;exitX=1;exitY=0.5;exitDx=0;exitDy=0;fontColor=default;labelBackgroundColor=none;" parent="1" source="PiowV0zNqFQFkt_69wuM-66" edge="1">
          <mxGeometry relative="1" as="geometry">
            <mxPoint x="-1373.8814893617023" y="553.9787234042553" as="targetPoint" />
          </mxGeometry>
        </mxCell>
        <mxCell id="PiowV0zNqFQFkt_69wuM-66" value="Insert Username" style="rounded=0;whiteSpace=wrap;html=1;labelBackgroundColor=none;" parent="1" vertex="1">
          <mxGeometry x="-1483.69" y="540" width="78" height="28" as="geometry" />
        </mxCell>
        <mxCell id="PiowV0zNqFQFkt_69wuM-70" style="edgeStyle=orthogonalEdgeStyle;rounded=0;orthogonalLoop=1;jettySize=auto;html=1;exitX=1;exitY=0.5;exitDx=0;exitDy=0;" parent="1" source="PiowV0zNqFQFkt_69wuM-68" edge="1">
          <mxGeometry relative="1" as="geometry">
            <mxPoint x="-1370.9899877929688" y="604" as="targetPoint" />
          </mxGeometry>
        </mxCell>
        <mxCell id="PiowV0zNqFQFkt_69wuM-68" value="Insert password" style="rounded=0;whiteSpace=wrap;html=1;labelBackgroundColor=none;" parent="1" vertex="1">
          <mxGeometry x="-1483.69" y="590" width="78" height="28" as="geometry" />
        </mxCell>
        <mxCell id="PiowV0zNqFQFkt_69wuM-69" style="edgeStyle=orthogonalEdgeStyle;rounded=0;orthogonalLoop=1;jettySize=auto;html=1;exitX=0;exitY=0.5;exitDx=0;exitDy=0;fontColor=default;startArrow=classic;startFill=1;endArrow=none;endFill=0;labelBackgroundColor=none;" parent="1" edge="1">
          <mxGeometry relative="1" as="geometry">
            <mxPoint x="-1524.000344827586" y="603.6286206896551" as="targetPoint" />
            <mxPoint x="-1483.69" y="603.87" as="sourcePoint" />
          </mxGeometry>
        </mxCell>
        <mxCell id="PiowV0zNqFQFkt_69wuM-71" value="Check credendialts" style="rounded=0;whiteSpace=wrap;html=1;labelBackgroundColor=none;" parent="1" vertex="1">
          <mxGeometry x="-1339.5" y="570" width="78" height="28" as="geometry" />
        </mxCell>
        <mxCell id="PiowV0zNqFQFkt_69wuM-72" value="" style="endArrow=classic;html=1;rounded=0;entryX=0;entryY=0.5;entryDx=0;entryDy=0;" parent="1" target="PiowV0zNqFQFkt_69wuM-71" edge="1">
          <mxGeometry width="50" height="50" relative="1" as="geometry">
            <mxPoint x="-1373" y="584" as="sourcePoint" />
            <mxPoint x="-1416" y="529" as="targetPoint" />
          </mxGeometry>
        </mxCell>
        <mxCell id="PiowV0zNqFQFkt_69wuM-79" value="" style="edgeStyle=orthogonalEdgeStyle;rounded=0;orthogonalLoop=1;jettySize=auto;html=1;exitX=1;exitY=0.5;exitDx=0;exitDy=0;fontColor=default;labelBackgroundColor=none;" parent="1" source="PiowV0zNqFQFkt_69wuM-24" target="PiowV0zNqFQFkt_69wuM-78" edge="1">
          <mxGeometry relative="1" as="geometry">
            <mxPoint x="-1627" y="584" as="sourcePoint" />
            <mxPoint x="-1526" y="584" as="targetPoint" />
          </mxGeometry>
        </mxCell>
        <mxCell id="PiowV0zNqFQFkt_69wuM-78" value="" style="rhombus;whiteSpace=wrap;html=1;labelBackgroundColor=none;" parent="1" vertex="1">
          <mxGeometry x="-1602" y="567" width="34" height="34" as="geometry" />
        </mxCell>
      </root>
    </mxGraphModel>
  </diagram>
</mxfile>
